<svg xmlns="http://www.w3.org/2000/svg" viewBox="0 0 1000 400" width="1000" height="400" role="img" aria-label="Sahel dore">
  <defs>
    
    <linearGradient id="glare" x1="0" y1="0" x2="1" y2="1">
      <stop offset="0" stop-color="#ffffff" stop-opacity="0.22"/>
      <stop offset="0.45" stop-color="#ffffff" stop-opacity="0.02"/>
      <stop offset="1" stop-color="#ffffff" stop-opacity="0.10"/>
    </linearGradient>
  </defs>
  <g>
    
    <rect x="139.5" y="131" width="16" height="12" rx="4" fill="#c9a24a" stroke="#8a6a24" stroke-width="2"/>
    <rect x="844.5" y="131" width="16" height="12" rx="4" fill="#c9a24a" stroke="#8a6a24" stroke-width="2"/>
    
    <g transform=" translate(290,200)">
      <path d="M -130 -70 C -80 -100 60 -100 118 -74 C 134 -66 134 -40 128 -14
            C 116 50 90 108 40 122 C -10 136 -80 124 -110 90 C -136 60 -142 0 -134 -50
            C -133 -62 -132 -68 -130 -70 Z" fill="rgba(255,220,150,0.10)"/>
      <path d="M -130 -70 C -80 -100 60 -100 118 -74 C 134 -66 134 -40 128 -14
            C 116 50 90 108 40 122 C -10 136 -80 124 -110 90 C -136 60 -142 0 -134 -50
            C -133 -62 -132 -68 -130 -70 Z" fill="url(#glare)" opacity="0.9"/>
      <path d="M -130 -70 C -80 -100 60 -100 118 -74 C 134 -66 134 -40 128 -14
            C 116 50 90 108 40 122 C -10 136 -80 124 -110 90 C -136 60 -142 0 -134 -50
            C -133 -62 -132 -68 -130 -70 Z" fill="none" stroke="#8a6a24" stroke-width="13" stroke-linejoin="round"/>
      <path d="M -130 -70 C -80 -100 60 -100 118 -74 C 134 -66 134 -40 128 -14
            C 116 50 90 108 40 122 C -10 136 -80 124 -110 90 C -136 60 -142 0 -134 -50
            C -133 -62 -132 -68 -130 -70 Z" fill="none" stroke="#c9a24a" stroke-width="9" stroke-linejoin="round"/>
      <path d="M -130 -70 C -80 -100 60 -100 118 -74 C 134 -66 134 -40 128 -14
            C 116 50 90 108 40 122 C -10 136 -80 124 -110 90 C -136 60 -142 0 -134 -50
            C -133 -62 -132 -68 -130 -70 Z" fill="none" stroke="#f0d786" stroke-width="2" stroke-linejoin="round" opacity="0.55"
            transform="translate(-1.6199999999999999,-1.6199999999999999)"/>
    </g>
    
    <g transform="translate(1000,0) scale(-1,1) translate(290,200)">
      <path d="M -130 -70 C -80 -100 60 -100 118 -74 C 134 -66 134 -40 128 -14
            C 116 50 90 108 40 122 C -10 136 -80 124 -110 90 C -136 60 -142 0 -134 -50
            C -133 -62 -132 -68 -130 -70 Z" fill="rgba(255,220,150,0.10)"/>
      <path d="M -130 -70 C -80 -100 60 -100 118 -74 C 134 -66 134 -40 128 -14
            C 116 50 90 108 40 122 C -10 136 -80 124 -110 90 C -136 60 -142 0 -134 -50
            C -133 -62 -132 -68 -130 -70 Z" fill="url(#glare)" opacity="0.9"/>
      <path d="M -130 -70 C -80 -100 60 -100 118 -74 C 134 -66 134 -40 128 -14
            C 116 50 90 108 40 122 C -10 136 -80 124 -110 90 C -136 60 -142 0 -134 -50
            C -133 -62 -132 -68 -130 -70 Z" fill="none" stroke="#8a6a24" stroke-width="13" stroke-linejoin="round"/>
      <path d="M -130 -70 C -80 -100 60 -100 118 -74 C 134 -66 134 -40 128 -14
            C 116 50 90 108 40 122 C -10 136 -80 124 -110 90 C -136 60 -142 0 -134 -50
            C -133 -62 -132 -68 -130 -70 Z" fill="none" stroke="#c9a24a" stroke-width="9" stroke-linejoin="round"/>
      <path d="M -130 -70 C -80 -100 60 -100 118 -74 C 134 -66 134 -40 128 -14
            C 116 50 90 108 40 122 C -10 136 -80 124 -110 90 C -136 60 -142 0 -134 -50
            C -133 -62 -132 -68 -130 -70 Z" fill="none" stroke="#f0d786" stroke-width="2" stroke-linejoin="round" opacity="0.55"
            transform="translate(-1.6199999999999999,-1.6199999999999999)"/>
    </g>
    <path d="M 420 127.4 C 454 97.4 546 97.4 580 127.4"
         fill="none" stroke="#c9a24a" stroke-width="9" stroke-linecap="round"/>
       <path d="M 420 147.4 C 454 127.4 546 127.4 580 147.4" fill="none" stroke="#c9a24a" stroke-width="7.2" stroke-linecap="round"/>
       <ellipse cx="432" cy="226" rx="7" ry="12" fill="rgba(230,235,240,0.55)" stroke="#8a6a24" stroke-width="2"/>
       <ellipse cx="568" cy="226" rx="7" ry="12" fill="rgba(230,235,240,0.55)" stroke="#8a6a24" stroke-width="2"/>
    
  </g>
</svg>
